{"asset":{"version":"2.0","generator":"Blockbench 4.10.4 glTF exporter"},"scenes":[{"nodes":[2],"name":"blockbench_export"}],"scene":0,"nodes":[{"translation":[-0.9375,0,-0.046875],"name":"cuboid","mesh":0},{"name":"bone","children":[0]},{"children":[1]}],"bufferViews":[{"buffer":0,"byteOffset":0,"byteLength":4512,"target":34962,"byteStride":12},{"buffer":0,"byteOffset":4512,"byteLength":4512,"target":34962,"byteStride":12},{"buffer":0,"byteOffset":9024,"byteLength":3008,"target":34962,"byteStride":8},{"buffer":0,"byteOffset":12032,"byteLength":1128,"target":34963}],"buffers":[{"byteLength":13160,"uri":"data:application/octet-stream;base64,"}],"accessors":[{"bufferView":0,"componentType":5126,"count":376,"max":[0.9988328218460083,0.34375,0.65625],"min":[-0.53125,0.21875,-0.71875],"type":"VEC3"},{"bufferView":1,"componentType":5126,"count":376,"max":[1,1,0.9701424837112427],"min":[-1,-1,-0.9945819973945618],"type":"VEC3"},{"bufferView":2,"componentType":5126,"count":376,"max":[0.5202372074127197,0.8696503043174744],"min":[0.05990259721875191,0.09413886070251465],"type":"VEC2"},{"bufferView":3,"componentType":5123,"count":564,"max":[375],"min":[0],"type":"SCALAR"}],"materials":[{"pbrMetallicRoughness":{"metallicFactor":0,"roughnessFactor":1,"baseColorTexture":{"index":0}},"alphaMode":"MASK","alphaCutoff":0.05,"doubleSided":true}],"textures":[{"sampler":0,"source":0,"name":"stiched_texture"}],"samplers":[{"magFilter":9728,"minFilter":9728,"wrapS":33071,"wrapT":33071}],"images":[{"mimeType":"image/png","uri":"data:image/png;base64,"}],"meshes":[{"primitives":[{"mode":4,"attributes":{"POSITION":0,"NORMAL":1,"TEXCOORD_0":2},"indices":3,"material":0}]}]}